# xmcd CD database file
#
# Track frame offsets:
#	150
#	13060
#	35085
#	51100
#	60397
#	85087
#	107757
#	128960
#	141215
#	164080
#	188422
#	211767
#	216757
#	229090
#	242915
#	259575
#	278125
#	303450
#	336412
#
# Disc length: 4795 seconds
#
# Revision: 1
# Processed by: cddbd v1.5.1PL0 Copyright (c) Steve Scherf et al.
# Submitted via: CDex 1.51
#
DISCID=1512b913
DTITLE=EXILES - HEART of GOLD 〜STREET FUTURE OPERA BEAT POPS〜
DYEAR=2004
DGENRE=JPop
TTITLE0=BEAT POPS
TTITLE1=Carry On
TTITLE2=SO FUNKY NOISE
TTITLE3=Sand Jackal
TTITLE4=例えば・・・ボクが。
TTITLE5=JOY
TTITLE6=Emotion Beat
TTITLE7=J・S・B NexT
TTITLE8=Last Of War
TTITLE9=Close To You
TTITLE10=May Be Tomorrow
TTITLE11=Float
TTITLE12=ARather Train
TTITLE13=EWIG... (warum?)
TTITLE14=粋な一日
TTITLE15=イノチの理由
TTITLE16=HEART of GOLD
TTITLE17=運命のヒト (piano version)
TTITLE18=データ
EXTD=YEAR: 2004
EXTT0=
EXTT1=
EXTT2=
EXTT3=
EXTT4=
EXTT5=
EXTT6=
EXTT7=
EXTT8=
EXTT9=
EXTT10=
EXTT11=
EXTT12=
EXTT13=
EXTT14=
EXTT15=
EXTT16=
EXTT17=
EXTT18=
PLAYORDER=
